<svg xmlns="http://www.w3.org/2000/svg" width="64" height="48" viewBox="0 0 64 48" role="img" aria-label="United States flag">
  <rect width="64" height="48" fill="#b22234"/>
  <g fill="#fff">
    <rect y="3.69" width="64" height="3.69"/>
    <rect y="11.08" width="64" height="3.69"/>
    <rect y="18.46" width="64" height="3.69"/>
    <rect y="25.85" width="64" height="3.69"/>
    <rect y="33.23" width="64" height="3.69"/>
    <rect y="40.62" width="64" height="3.69"/>
  </g>
  <rect width="25.6" height="25.85" fill="#3c3b6e"/>
  <g fill="#fff">
    <circle cx="3.2" cy="3.23" r="1"/>
    <circle cx="8.53" cy="3.23" r="1"/>
    <circle cx="13.87" cy="3.23" r="1"/>
    <circle cx="19.2" cy="3.23" r="1"/>
    <circle cx="24.53" cy="3.23" r="1"/>
    <circle cx="5.87" cy="6.46" r="1"/>
    <circle cx="11.2" cy="6.46" r="1"/>
    <circle cx="16.53" cy="6.46" r="1"/>
    <circle cx="21.87" cy="6.46" r="1"/>
    <circle cx="3.2" cy="9.69" r="1"/>
    <circle cx="8.53" cy="9.69" r="1"/>
    <circle cx="13.87" cy="9.69" r="1"/>
    <circle cx="19.2" cy="9.69" r="1"/>
    <circle cx="24.53" cy="9.69" r="1"/>
    <circle cx="5.87" cy="12.92" r="1"/>
    <circle cx="11.2" cy="12.92" r="1"/>
    <circle cx="16.53" cy="12.92" r="1"/>
    <circle cx="21.87" cy="12.92" r="1"/>
    <circle cx="3.2" cy="16.15" r="1"/>
    <circle cx="8.53" cy="16.15" r="1"/>
    <circle cx="13.87" cy="16.15" r="1"/>
    <circle cx="19.2" cy="16.15" r="1"/>
    <circle cx="24.53" cy="16.15" r="1"/>
    <circle cx="5.87" cy="19.38" r="1"/>
    <circle cx="11.2" cy="19.38" r="1"/>
    <circle cx="16.53" cy="19.38" r="1"/>
    <circle cx="21.87" cy="19.38" r="1"/>
    <circle cx="3.2" cy="22.62" r="1"/>
    <circle cx="8.53" cy="22.62" r="1"/>
    <circle cx="13.87" cy="22.62" r="1"/>
    <circle cx="19.2" cy="22.62" r="1"/>
    <circle cx="24.53" cy="22.62" r="1"/>
  </g>
  <rect width="63" height="47" x="0.5" y="0.5" fill="none" stroke="#000" stroke-opacity="0.08"/>
</svg>
